# xmcd
# 
# Track frame offsets:
#     150
#     25962
#     48700
#     71500
#     99987
#     120500
#     141825
#     162775
#     184837
# 
# Disc length: 2742
# 
# Revision: 2
# Processed by: cddbd v1.5.2PL0 Copyright (c) Steve Scherf et al.
# Submitted via: fre:ac v1.0.17
# 
DISCID=770ab409
DTITLE=本田俊之 - Reed My Lips
DYEAR=1992
DGENRE=
TTITLE0=Crash Course
TTITLE1=La Jolla
TTITLE2=Inase Night
TTITLE3=Mind Games
TTITLE4=Siesta
TTITLE5=Fancy Free
TTITLE6=Comme Ci,Comme Ca
TTITLE7=High Speed Chase
TTITLE8=Farewell My Summer
EXTD=
EXTT0=
EXTT1=
EXTT2=
EXTT3=
EXTT4=
EXTT5=
EXTT6=
EXTT7=
EXTT8=
PLAYORDER=
